<svg viewBox="0 0 499 439" xmlns="http://www.w3.org/2000/svg"><path d="m316.51544.05115872c8.378383.58376313 22.093709 7.5700552 41.145981 20.95887618 10.186163.7129292 18.881831 4.5037158 26.087004 11.3723596 7.205172 6.8686439 13.637222 20.8238391 19.29615 41.8655857 9.257978 7.381606 15.109039 14.3858666 17.553182 21.0127818 2.444143 6.626915 1.295501 13.862479-3.445927 21.706692 9.892553 5.250827 15.975545 9.552238 18.248978 12.904232 2.273432 3.351995 4.190583 7.806945 5.751454 13.36485 20.731893-1.25617 34.381506-1.25617 40.948839 0 9.850998 1.884255 16.898899 7.213209 16.898899 11.064857 0 2.567765-5.632966 6.462306-16.898899 11.683621l-40.948839 7.675058c24.68575 29.273229 38.335363 51.720029 40.948839 67.340401s-4.130914 34.445106-20.233169 56.474202c-2.138205 42.735139-9.043428 69.711038-20.71567 80.9277-11.672242 11.216661-39.502523 17.620499-83.490841 19.211512-11.246663 22.74183-23.925205 36.001505-38.035627 39.779025-14.110423 3.777519-36.521862.895641-67.23432-8.645636-32.368193 9.263903-54.864223 12.145781-67.488089 8.645636-12.623867-3.500146-27.557114-16.759821-44.799742-39.779025-29.772271 1.458975-54.1582845-4.944863-73.1580412-19.211512-18.9997568-14.26665-25.729789-40.49186-20.1900967-78.675629-17.5595604-20.333455-25.4742348-39.908879-23.7440232-58.726273s16.3749182-41.264194 43.9341199-67.340401c-38.2185845-5.117987-59.65193644-9.082845-64.30005571-11.894574-6.97217892-4.217594.5750105-14.416922 14.00636441-18.528962 8.954236-2.741361 24.45946-2.741361 46.5156721 0 2.2866268-10.030193 4.7445246-16.596739 7.3736934-19.699636 2.6291687-3.102898 7.5907709-5.292713 14.8848063-6.569446-1.9493872-25.0540301 2.7530311-44.0578418 14.1072548-57.0114346 11.3542239-12.9535929 24.8776589-18.5534401 40.5703059-16.7995416 10.566677-23.4599191 22.462393-36.50911866 35.687147-39.14759883s30.431198.45443068 51.619332 9.27873253c7.210338-8.82430185 15.537455-13.23645278 24.981352-13.23645278s20.240141 4.41215093 32.388731 13.23645278c12.778441-9.40806498 23.356853-13.82021592 31.735235-13.23645278zm103.398679 205.94884128c-17.290677 7.851694-45.248056 9.039588-61.213938 12.691623-7.659628 7.168308-46.709536 105.283959-105.200181 105.283959s-104.514334-88.465225-112.292247-112.452267c-18.700382 0-38.246785-7.066813-51.6118028 0-13.3650174 7.066813-27.1217272 20.360885-29.4057164 41.549972-2.2839892 21.189086 16.6063622 21.366752 24.080251 43.580719 7.4738888 22.213966-8.8159565 43.36367 13.6606336 61.056729 22.4765896 17.693059 42.8426056-8.976322 63.0513026 0 20.208696 8.976321 25.596931 47.068019 47.829303 47.068019s21.641218-14.820401 43.155906-15.62437c21.514689-.803969 32.884059 22.330315 50.703303 15.62437 17.819245-6.705945 24.189483-39.050389 41.929644-47.068019s32.62605 16.414543 58.798636 4.22743c26.172586-12.187114 12.298693-39.722037 16.514906-65.284159 4.216212-25.562123 27.085881-21.838834 27.085881-43.580719s-10.570976-40.730825-27.085881-47.073287zm-218.914119-11c-14.911688 0-27 12.088312-27 27s12.088312 27 27 27 27-12.088312 27-27-12.088312-27-27-27zm101.5 0c-15.187831 0-27.5 12.088312-27.5 27s12.312169 27 27.5 27 27.5-12.088312 27.5-27-12.312169-27-27.5-27zm7.549935-154.9603071c-14.078448-.8916374-13.070615 13.5343371-27.175993 13.5343371s-16.539416-13.5343371-31.496972-13.5343371-11.210923 13.5343371-25.137693 13.5343371-32.253962-21.8235798-46.563206-8.9581673c-14.309244 12.8654126.437514 19.9052891-16.047929 29.7590981-16.485443 9.8538091-31.991672-2.6459958-38.841869 4.7126153-6.850198 7.3586111.711845 19.8037376-3.382517 37.6956739-4.094361 17.891936-7.267706 11.733721-9.008802 19.12685-1.741096 7.39313 2.029027 6.766652 0 17.006699s-12.5643746 13.384-6.573945 16.170533c5.99043 2.786532 28.164089 6.943209 44.673078 2.8741 16.50899-4.069109 4.983851-8.562825 20.93321-19.044633s32.52405 6.025674 43.146104 4.380248c10.622053-1.645426 15.564822-18.105259 36.803569-18.105259 21.238748 0 28.274998 18.837075 41.684294 21.320473 13.409297 2.483398 16.988671-18.07727 33.354792-10.478309s8.663312 25.649711 30.423623 31.244254c21.760311 5.594542 36.315574-3.497337 43.685646-12.190874 7.370072-8.693538-15.281848-1.545509-15.281848-11.790285s11.887931-15.557441 11.887931-21.386947c0-5.829505-8.975302-4.537073-11.887931-10.511546-2.912629-5.974472 5.085712-11.456067 0-20.835042-5.085712-9.3789747-12.021732-2.382154-15.122753-7.0540536-3.10102-4.6718993-.273978-20.194064-13.281045-35.7382068s-12.608215-1.0822223-20.658251-4.8210719c-8.050035-3.7388496-12.053046-16.0188494-26.131493-16.9104868z" fill="#fff" fill-rule="evenodd"/></svg>